<svg xmlns="http://www.w3.org/2000/svg" xmlns:xlink="http://www.w3.org/1999/xlink" width="53" height="46" viewBox="0 0 53 46"><defs><path id="dciza" d="M1518.5 73.7a5.27 5.27 0 0 1-5.22 5.31 5.27 5.27 0 0 1-5.23-5.31c0-2.93 2.34-5.3 5.23-5.3a5.27 5.27 0 0 1 5.22 5.3zm-2.82 0a2.43 2.43 0 0 0-2.4-2.44c-1.33 0-2.4 1.1-2.4 2.44a2.43 2.43 0 0 0 2.4 2.44c1.32 0 2.4-1.1 2.4-2.44zm-16.47 0a5.27 5.27 0 0 1-5.22 5.31 5.27 5.27 0 0 1-5.22-5.31c0-2.93 2.33-5.3 5.22-5.3a5.27 5.27 0 0 1 5.22 5.3zm-2.82 0a2.43 2.43 0 0 0-2.4-2.44c-1.33 0-2.4 1.1-2.4 2.44a2.43 2.43 0 0 0 2.4 2.44c1.33 0 2.4-1.1 2.4-2.44zm27.3-29.25l-6.86 16.53a4.06 4.06 0 0 1-3.74 2.52h-19.73c.51.55 1.23.88 2.01.88h17.35a1.89 1.89 0 0 1 1.84 2.21 1.94 1.94 0 0 1-1.94 1.58h-19.98c-1.2 0-2.27-.78-2.64-1.94l-7.92-24.18a1.82 1.82 0 0 0-1.72-1.27h-3.43c-.93 0-1.79-.64-1.94-1.57-.19-1.19.7-2.21 1.84-2.21h6.26c.79 0 1.48.5 1.73 1.26l7.01 21.46h19.8c1.08 0 2.05-.63 2.52-1.6l6.25-13.29c.39-.82-.2-1.78-1.1-1.78h-29.44c-.93 0-1.8-.64-1.94-1.57-.2-1.19.7-2.21 1.83-2.21h30.55a3.73 3.73 0 0 1 3.39 5.18z"/></defs><g><g transform="translate(-1473 -35)"><use fill="#ffffff" xlink:href="#dciza"/></g></g></svg>
